<svg id="iPhone_X_XS_11_Pro_1" data-name="iPhone X, XS, 11 Pro – 1" xmlns="http://www.w3.org/2000/svg" xmlns:xlink="http://www.w3.org/1999/xlink" width="1242" height="2436" viewBox="0 0 1242 2436">
  <defs>
    <clipPath id="clip-path">
      <rect id="Rectangle_1" data-name="Rectangle 1" width="1242" height="2436"/>
    </clipPath>
  </defs>
  <g id="iPhone_X_XS_11_Pro_1-2" data-name="iPhone X, XS, 11 Pro – 1" clip-path="url(#clip-path)">
    <rect id="Rectangle_1-2" data-name="Rectangle 1" width="1238.688" height="2436" transform="translate(3.312)" fill="#b0de4c"/>
    <path id="Path_1" data-name="Path 1" d="M0,683.73S206.381,326.511,590.725,398.856s723.188,194.574,658.757-263.4S0,135.444,0,135.444Z" transform="translate(0 -136.182)" fill="#cef573" stroke="#707070" stroke-width="1"/>
    <path id="Path_2" data-name="Path 2" d="M1,330.548S165.418,24.335,408.936-8.1s396.672,196.3,602.648,220.971S1244.931,94.094,1244.931,94.094V18.98L1,22.475Z" transform="translate(2.312 -22.475)" fill="#fff" stroke="#707070" stroke-width="1"/>
    <path id="Rectangle_2" data-name="Rectangle 2" d="M0,0H1238.688V2436H0Z" transform="translate(3.312)" fill="#b0de4c"/>
    <path id="Path_3" data-name="Path 3" d="M0,683.73S206.381,326.511,590.725,398.856s723.188,194.574,658.757-263.4S0,135.444,0,135.444Z" transform="translate(0 -136.182)" fill="#cef573"/>
    <path id="Path_4" data-name="Path 4" d="M1,330.548S165.418,24.335,408.936-8.1s396.672,196.3,602.648,220.971S1244.931,94.094,1244.931,94.094V18.98L1,22.475Z" transform="translate(2.312 -22.475)" fill="#b0de4c"/>
  </g>
</svg>
