<svg xmlns="http://www.w3.org/2000/svg" width="1257.395" height="751.821" viewBox="0 0 1257.395 751.821">
  <g id="Group_3" data-name="Group 3" transform="translate(-1000 485.273)">
    <path id="Path_1" data-name="Path 1" d="M0,683.73S206.381,326.511,590.725,398.856s723.188,194.574,658.757-263.4S0,135.444,0,135.444Z" transform="translate(1000 -417.182)" fill="#cef573"/>
    <path id="Path_2" data-name="Path 2" d="M1,330.548S165.418,24.335,408.936-8.1s396.672,196.3,602.648,220.971S1244.931,94.094,1244.931,94.094V18.98L1,22.475Z" transform="translate(999.312 -304.475)" fill="#fff"/>
    <path id="Path_3" data-name="Path 3" d="M0,683.73S206.381,326.511,590.725,398.856s723.188,194.574,658.757-263.4S0,135.444,0,135.444Z" transform="translate(1000 -417.182)" fill="#cef573"/>
    <path id="Path_4" data-name="Path 4" d="M1,330.548S166.25,24.335,411-8.1s398.679,196.3,605.7,220.971S1251.225,94.094,1251.225,94.094V18.98L1,22.475Z" transform="translate(999.312 -304.475)" fill="#fff"/>
    <g id="Group_2" data-name="Group 2" transform="translate(-9 323.839)">
      <rect id="Rectangle_2" data-name="Rectangle 2" width="1248" height="204" transform="translate(1009 -808.839)" fill="#cef573"/>
    </g>
  </g>
</svg>
